<svg xmlns="http://www.w3.org/2000/svg" viewBox="0 0 580.02 757.17">
  <g>
    <path fill="#ed9b33" d="M580.02,14.71v718.66c-16.84-3.05-33.63-6.41-50.34-9.86-31.84-6.58-63.55-13.98-95.79-18.39-17.56-2.4-35.15-4.28-52.88-4.54-17.7-.25-35.19,1.3-52.68,3.93-30.24,4.54-59.52,13.56-88.49,23.09-32.18,10.58-64.69,22.69-98.32,27.82-24.77,2.96-49.73,1.87-74.44-1.24-15.12-2.14-30.14-4.91-45.11-7.88-6.56-1.3-15.37-2.53-21.96-3.84V23.79c16.84,3.05,33.63,6.41,50.34,9.86,31.84,6.58,63.55,13.98,95.79,18.39,17.56,2.4,35.15,4.28,52.88,4.54,17.7.25,35.19-1.3,52.68-3.93,30.24-4.54,59.52-13.56,88.49-23.09,32.18-10.58,64.69-22.69,98.32-27.82,24.77-2.96,49.73-1.87,74.44,1.24,15.12,2.14,30.14,4.91,45.11,7.88,6.56,1.3,15.37,2.53,21.96,3.84Z"/>
  </g>
</svg>