<svg xmlns="http://www.w3.org/2000/svg" viewBox="0 0 172.09 172.24">
   <g >
    <g>
      <path fill="#fff" d="M172.09,86.52c0,47.38-38.53,85.77-86.01,85.71C38.47,172.17-.2,133.57,0,86.03.21,36.3,41.46-.77,88.1.01c46.03.77,84,39.22,83.99,86.51ZM161.65,86.46c.01-41.71-33.72-75.83-75.03-75.88-42.05-.05-76.35,34.03-76.22,75.72.13,41.4,34.26,75.46,75.63,75.5,41.51.03,75.61-33.94,75.62-75.34Z"/>
      <path fill="#fff" d="M57.22,86.09c0-12.74-.02-25.47,0-38.21.02-7.01,3.62-9.1,9.74-5.58,22.18,12.76,44.34,25.56,66.48,38.4,5.78,3.35,5.72,7.65-.14,11.04-22.14,12.83-44.3,25.63-66.48,38.4-5.85,3.37-9.59,1.26-9.61-5.4-.04-12.88-.01-25.76-.01-38.64Z"/>
    </g>
  </g>
</svg>