<svg id="Layer_2" data-name="Layer 2" xmlns="http://www.w3.org/2000/svg" viewBox="0 0 1939.56 1181.57">
  <g>
    <path fill="#ed9b33" d="M1939.56,49.18v1052.82c-56.32-10.19-112.47-21.42-168.35-32.97-106.47-22.01-212.51-46.75-320.32-61.49-58.71-8.03-117.53-14.32-176.84-15.17-59.18-.85-117.68,4.36-176.17,13.14-101.11,15.18-199.02,45.34-295.91,77.21-107.62,35.38-216.32,75.86-328.78,93.04-82.83,9.91-166.28,6.25-248.91-4.16-50.56-7.15-100.78-16.41-150.85-26.36-21.94-4.36-51.41-8.46-73.43-12.84V79.57c56.32,10.19,112.47,21.42,168.35,32.98,106.47,22.01,212.51,46.74,320.32,61.49,58.71,8.03,117.53,14.32,176.84,15.17,59.18.85,117.68-4.36,176.17-13.14,101.11-15.19,199.02-45.35,295.92-77.21,107.61-35.39,216.31-75.86,328.77-93.04,82.83-9.91,166.28-6.25,248.91,4.15,50.56,7.16,100.78,16.41,150.85,26.36,21.94,4.36,51.41,8.46,73.43,12.85Z"/>
  </g>
</svg>